<svg xmlns="http://www.w3.org/2000/svg" width="129.043" height="96.954" viewBox="0 0 129.043 96.954">
  <g id="Group_177" data-name="Group 177" transform="translate(-16.874 -21.393)">
    <path id="Path_1" data-name="Path 1" d="M46.871,40.221H36.054V51.161l10.817-.1Z" transform="translate(5.962 5.853)"/>
    <path id="Path_2" data-name="Path 2" d="M46.538,50.72V61.673H57.215L57.1,50.791Z" transform="translate(9.221 9.116)"/>
    <path id="Path_3" data-name="Path 3" d="M86.256,41.188,70.9,26.1a16.424,16.424,0,0,0-11.511-4.71h-11.1a16.414,16.414,0,0,0-11.609,4.813l-15,15a16.451,16.451,0,0,0-4.808,11.614V63.872a16.4,16.4,0,0,0,4.76,11.562L36.668,90.608a16.451,16.451,0,0,0,11.668,4.858H59.351a16.4,16.4,0,0,0,11.563-4.76L86.306,75.452a16.435,16.435,0,0,0,4.858-11.667V52.9a16.431,16.431,0,0,0-4.908-11.716M52.833,73.721V59.841l-13.752.122V43.145H55.759V56.913L69.223,57l.166,16.721Z"/>
    <path id="Path_4" data-name="Path 4" d="M89.048,79.648a3.979,3.979,0,0,1,.149.572.357.357,0,0,1-.077.32.667.667,0,0,1-.393.132q-.277.022-.779.021c-.338,0-.6,0-.8-.018a1.428,1.428,0,0,1-.433-.059.384.384,0,0,1-.22-.123.932.932,0,0,1-.1-.21l-.874-2.618H80.645l-.83,2.543a.939.939,0,0,1-.1.239.5.5,0,0,1-.21.153,1.8,1.8,0,0,1-.414.075c-.181.012-.416.018-.7.018a6.42,6.42,0,0,1-.72-.028.585.585,0,0,1-.368-.146.41.41,0,0,1-.075-.326,3.757,3.757,0,0,1,.156-.565L81.4,68.086a1.045,1.045,0,0,1,.139-.282.473.473,0,0,1,.261-.157,1.908,1.908,0,0,1,.485-.068c.21-.016.486-.016.826-.016.395,0,.709,0,.94.016a2.434,2.434,0,0,1,.551.068.5.5,0,0,1,.284.164.989.989,0,0,1,.139.3ZM85.641,64.969a2.173,2.173,0,0,1-.17.863,1.834,1.834,0,0,1-.464.64,2.387,2.387,0,0,1-.766.4,3.967,3.967,0,0,1-2.076.009,1.851,1.851,0,0,1-.725-.38A1.54,1.54,0,0,1,81,65.877a2.283,2.283,0,0,1-.149-.842,2.061,2.061,0,0,1,.164-.856,1.688,1.688,0,0,1,.472-.644,2.118,2.118,0,0,1,.756-.393A3.556,3.556,0,0,1,83.271,63a2.744,2.744,0,0,1,1.772.493A1.816,1.816,0,0,1,85.641,64.969ZM83.075,70.1h-.012L81.22,75.635h3.693ZM84.1,65.017a1,1,0,0,0-.191-.633.854.854,0,0,0-.68-.243.818.818,0,0,0-.621.223.844.844,0,0,0-.211.623.982.982,0,0,0,.2.651.853.853,0,0,0,.675.232.814.814,0,0,0,.633-.232A.928.928,0,0,0,84.1,65.017Z" transform="translate(18.758 12.935)" fill="#302d2c"/>
    <path id="Path_5" data-name="Path 5" d="M95.372,67.611a3.891,3.891,0,0,1-.026.5,2.229,2.229,0,0,1-.071.328.521.521,0,0,1-.13.186.252.252,0,0,1-.164.06H91.716V79.176a.259.259,0,0,1-.059.18.43.43,0,0,1-.218.132,2.275,2.275,0,0,1-.405.081,6.843,6.843,0,0,1-1.283,0,2.22,2.22,0,0,1-.406-.081.449.449,0,0,1-.216-.132.267.267,0,0,1-.062-.18V68.686H85.8a.242.242,0,0,1-.166-.06.361.361,0,0,1-.118-.186,1.275,1.275,0,0,1-.084-.328,4.927,4.927,0,0,1-.021-.5c0-.2.007-.372.021-.514a1.261,1.261,0,0,1,.084-.334.348.348,0,0,1,.118-.182.265.265,0,0,1,.166-.055h9.177a.277.277,0,0,1,.164.055.5.5,0,0,1,.13.182,2.157,2.157,0,0,1,.071.334,4.1,4.1,0,0,1,.026.514" transform="translate(21.306 14.029)" fill="#302d2c"/>
    <path id="Path_6" data-name="Path 6" d="M103.345,67.611c0,.2-.016.362-.025.5a1.132,1.132,0,0,1-.084.328.38.38,0,0,1-.121.186.24.24,0,0,1-.164.06H99.689V79.176a.259.259,0,0,1-.059.18.476.476,0,0,1-.22.132,2.391,2.391,0,0,1-.412.081,6.731,6.731,0,0,1-1.273,0,2.108,2.108,0,0,1-.406-.081.446.446,0,0,1-.219-.132.264.264,0,0,1-.066-.18V68.686H93.776a.238.238,0,0,1-.168-.06.434.434,0,0,1-.123-.186,1.53,1.53,0,0,1-.071-.328,4.362,4.362,0,0,1-.029-.5,4.6,4.6,0,0,1,.029-.514,1.512,1.512,0,0,1,.071-.334.418.418,0,0,1,.123-.182.261.261,0,0,1,.168-.055h9.176a.263.263,0,0,1,.164.055.367.367,0,0,1,.121.182,1.125,1.125,0,0,1,.084.334c.009.142.025.312.025.514" transform="translate(23.783 14.029)" fill="#302d2c"/>
    <path id="Path_7" data-name="Path 7" d="M111.857,78.568a2.92,2.92,0,0,1,.146.572.331.331,0,0,1-.08.32.686.686,0,0,1-.393.13c-.182.014-.443.021-.771.021s-.608,0-.8-.013a1.668,1.668,0,0,1-.437-.062.386.386,0,0,1-.214-.123.756.756,0,0,1-.1-.214l-.873-2.614h-4.879l-.826,2.546a1.07,1.07,0,0,1-.115.236.428.428,0,0,1-.207.153,1.5,1.5,0,0,1-.412.072c-.18.012-.414.018-.695.018-.313,0-.558-.007-.731-.025a.526.526,0,0,1-.355-.146.388.388,0,0,1-.077-.33,3.488,3.488,0,0,1,.157-.561L104.2,67a1.3,1.3,0,0,1,.144-.278.5.5,0,0,1,.258-.157,1.939,1.939,0,0,1,.485-.071c.21-.013.486-.017.828-.017.392,0,.712,0,.948.017a2.265,2.265,0,0,1,.54.071.508.508,0,0,1,.284.164,1.161,1.161,0,0,1,.151.3Zm-5.979-9.546h-.007l-1.843,5.533h3.694Z" transform="translate(25.849 14.015)" fill="#302d2c"/>
    <path id="Path_8" data-name="Path 8" d="M86.346,89.194a4.491,4.491,0,0,1-.328,1.757,3.629,3.629,0,0,1-.915,1.333,4.15,4.15,0,0,1-1.467.86,6.433,6.433,0,0,1-2.084.3H80.074v4.693a.225.225,0,0,1-.041.142.422.422,0,0,1-.146.1,1.679,1.679,0,0,1-.256.055,2.648,2.648,0,0,1-.421.03,2.589,2.589,0,0,1-.416-.03,1.888,1.888,0,0,1-.265-.055.4.4,0,0,1-.136-.1.229.229,0,0,1-.046-.142V86.122a.7.7,0,0,1,.208-.573.759.759,0,0,1,.481-.166h2.78c.284,0,.548.007.807.028s.565.077.922.152A4.087,4.087,0,0,1,84.621,86a3.516,3.516,0,0,1,.933.783,3.262,3.262,0,0,1,.582,1.07,4.2,4.2,0,0,1,.21,1.346m-1.825.136a2.669,2.669,0,0,0-.3-1.327,2.045,2.045,0,0,0-.729-.8,2.57,2.57,0,0,0-.907-.332,6.913,6.913,0,0,0-.912-.071h-1.6v5.221h1.559a3.534,3.534,0,0,0,1.306-.2,2.39,2.39,0,0,0,.869-.553,2.308,2.308,0,0,0,.539-.856A3.36,3.36,0,0,0,84.522,89.33Z" transform="translate(19.109 19.891)" fill="#302d2c"/>
    <path id="Path_9" data-name="Path 9" d="M95.144,98.132a.387.387,0,0,1-.031.143.2.2,0,0,1-.128.094,1.014,1.014,0,0,1-.288.063,3.441,3.441,0,0,1-.477.018,3.012,3.012,0,0,1-.433-.018,1.233,1.233,0,0,1-.26-.063.37.37,0,0,1-.159-.13,1.133,1.133,0,0,1-.1-.2l-1.192-3.065c-.143-.346-.281-.669-.438-.962a3.086,3.086,0,0,0-.539-.755,2.3,2.3,0,0,0-.73-.492,2.675,2.675,0,0,0-1.019-.173H88.194v5.54a.219.219,0,0,1-.046.143.251.251,0,0,1-.143.094,1.52,1.52,0,0,1-.257.059,3.113,3.113,0,0,1-.421.022,3.014,3.014,0,0,1-.413-.022,1.805,1.805,0,0,1-.27-.059.24.24,0,0,1-.139-.094.28.28,0,0,1-.037-.143V86.085a.656.656,0,0,1,.2-.548.715.715,0,0,1,.439-.157h2.766c.328,0,.6.009.819.026s.41.035.587.056a4.836,4.836,0,0,1,1.336.412,3.159,3.159,0,0,1,.969.712,3.008,3.008,0,0,1,.587.99,3.895,3.895,0,0,1,.022,2.407,2.83,2.83,0,0,1-.514.915,3.352,3.352,0,0,1-.8.686,4.77,4.77,0,0,1-1.033.493,2.614,2.614,0,0,1,.587.358,3.037,3.037,0,0,1,.486.52,4.016,4.016,0,0,1,.426.692c.136.261.273.557.409.882l1.16,2.868a5.261,5.261,0,0,1,.185.507.942.942,0,0,1,.041.228m-2.61-9.143A2.365,2.365,0,0,0,92.2,87.7a1.954,1.954,0,0,0-1.148-.758,3.1,3.1,0,0,0-.575-.1c-.2-.021-.478-.031-.826-.031H88.194v4.383h1.695a3.825,3.825,0,0,0,1.178-.164,2.4,2.4,0,0,0,.828-.46,1.852,1.852,0,0,0,.486-.7A2.457,2.457,0,0,0,92.534,88.989Z" transform="translate(21.633 19.89)" fill="#302d2c"/>
    <path id="Path_10" data-name="Path 10" d="M96.723,98.147a.231.231,0,0,1-.18.239c-.067.018-.153.039-.265.059a3.49,3.49,0,0,1-.832,0c-.109-.02-.2-.041-.269-.059a.308.308,0,0,1-.142-.1A.268.268,0,0,1,95,98.147V85.657a.2.2,0,0,1,.046-.139.254.254,0,0,1,.146-.1,2.594,2.594,0,0,1,.275-.06,3.394,3.394,0,0,1,.4-.026,3.59,3.59,0,0,1,.418.026,1.95,1.95,0,0,1,.265.06.22.22,0,0,1,.14.1.234.234,0,0,1,.039.139Z" transform="translate(24.284 19.875)" fill="#302d2c"/>
    <path id="Path_11" data-name="Path 11" d="M108.791,97.687a.838.838,0,0,1-.066.337.62.62,0,0,1-.182.237.64.64,0,0,1-.241.13.994.994,0,0,1-.269.045h-.573a2.063,2.063,0,0,1-.473-.056,1.09,1.09,0,0,1-.383-.2,2.071,2.071,0,0,1-.366-.4,4.89,4.89,0,0,1-.385-.644l-3.971-7.4c-.208-.384-.417-.783-.629-1.2s-.4-.826-.589-1.219h-.018c.009.48.025.975.028,1.475s.013,1,.013,1.5v7.856a.267.267,0,0,1-.041.136.369.369,0,0,1-.151.1,2.224,2.224,0,0,1-.263.056,3.706,3.706,0,0,1-.835,0,2.282,2.282,0,0,1-.261-.056.269.269,0,0,1-.135-.1.208.208,0,0,1-.047-.136v-12a.662.662,0,0,1,.229-.575.8.8,0,0,1,.5-.173h.851a2.116,2.116,0,0,1,.5.052,1,1,0,0,1,.362.168,1.375,1.375,0,0,1,.309.317,5.632,5.632,0,0,1,.317.52l3.054,5.711c.182.347.364.688.541,1.022s.346.658.506.979.319.634.48.954.316.624.473.936h.007c-.012-.532-.018-1.083-.025-1.654V85.679a.226.226,0,0,1,.037-.13.334.334,0,0,1,.148-.1.813.813,0,0,1,.267-.068,3.746,3.746,0,0,1,.423-.02,3.689,3.689,0,0,1,.405.02.778.778,0,0,1,.266.068.275.275,0,0,1,.136.1.19.19,0,0,1,.043.13Z" transform="translate(25.514 19.883)" fill="#302d2c"/>
    <path id="Path_12" data-name="Path 12" d="M117.624,86.125a2.626,2.626,0,0,1-.018.33.916.916,0,0,1-.064.232.68.68,0,0,1-.111.123.339.339,0,0,1-.14.037h-3.665V98.131a.23.23,0,0,1-.043.143.277.277,0,0,1-.142.093,1.531,1.531,0,0,1-.262.062,3.189,3.189,0,0,1-.418.021,3.019,3.019,0,0,1-.408-.021,1.6,1.6,0,0,1-.273-.062.379.379,0,0,1-.148-.093.276.276,0,0,1-.037-.143V86.847h-3.66a.33.33,0,0,1-.148-.037.363.363,0,0,1-.1-.123,2.152,2.152,0,0,1-.069-.232c-.008-.093-.017-.2-.017-.33s.009-.241.017-.334a1.977,1.977,0,0,1,.069-.241.294.294,0,0,1,.1-.131.288.288,0,0,1,.148-.039h9.055a.292.292,0,0,1,.14.039.454.454,0,0,1,.111.131.92.92,0,0,1,.064.241,2.694,2.694,0,0,1,.018.334" transform="translate(28.293 19.89)" fill="#302d2c"/>
  </g>
</svg>
