<svg xmlns="http://www.w3.org/2000/svg" width="35.38" height="35.39" viewBox="0 0 35.38 35.39">
  <g id="mail" transform="translate(-999.03 -376.63)">
    <path id="Path_111" data-name="Path 111" d="M1016.72,376.63a17.695,17.695,0,1,0,17.69,17.69A17.69,17.69,0,0,0,1016.72,376.63Zm-9.01,8.61h18.03a2.987,2.987,0,0,1,1.12.23.71.71,0,0,0-.23.19l-8.06,9.14a2.466,2.466,0,0,1-3.69,0l-8.2-9.31c-.01-.01-.03-.02-.04-.04A2.914,2.914,0,0,1,1007.71,385.24Zm20.82,15.38a2.791,2.791,0,0,1-2.79,2.79h-18.03a2.791,2.791,0,0,1-2.79-2.79V388.03a2.8,2.8,0,0,1,.4-1.44c.02.02.03.04.05.06l8.2,9.31a4.215,4.215,0,0,0,6.31,0l8.06-9.15a1.01,1.01,0,0,0,.16-.26,2.758,2.758,0,0,1,.43,1.48Z"/>
  </g>
</svg>
