<svg xmlns="http://www.w3.org/2000/svg" width="35.39" height="35.38" viewBox="0 0 35.39 35.38">
  <g id="phone" transform="translate(-1043.82 -299.94)">
    <g id="Group_140" data-name="Group 140">
      <path id="Path_114" data-name="Path 114" d="M1061.52,299.94a17.69,17.69,0,1,0,17.69,17.69A17.692,17.692,0,0,0,1061.52,299.94Zm7.51,16.98a28.956,28.956,0,0,1-5.38,8.76,12.129,12.129,0,0,1-4.33,3.24,5.81,5.81,0,0,1-3.16.44,2.25,2.25,0,0,1-.75-.27c-.67-.36-1.32-.76-1.98-1.15a.892.892,0,0,1-.36-1.35c.93-1.58,1.86-3.17,2.79-4.75a.893.893,0,0,1,1.34-.35c.7.4,1.38.8,2.07,1.22a.946.946,0,0,0,1.1-.02,4.6,4.6,0,0,0,1.38-1.5c.82-1.35,1.64-2.72,2.4-4.1a17.568,17.568,0,0,0,.86-1.99,3.008,3.008,0,0,0,.13-.61.89.89,0,0,0-.51-1.01q-1.005-.57-2.01-1.17a.888.888,0,0,1-.35-1.34l2.7-4.62a.9.9,0,0,1,.89-.51,1.044,1.044,0,0,1,.39.12c.73.43,1.46.86,2.18,1.3a2.739,2.739,0,0,1,1.03,1.25,6.849,6.849,0,0,1,.66,3.22A14.226,14.226,0,0,1,1069.03,316.92Z"/>
    </g>
  </g>
</svg>
